<svg width="779" height="105" viewBox="0 0 779 105" fill="none" xmlns="http://www.w3.org/2000/svg">
<path d="M209.155 75.7542V87.5066H161.998L149.483 75.7542V0H161.998V75.7542H209.155Z" fill="#EBEBF2"/>
<path d="M294.717 54.134C301.846 50.2616 311.354 47.8841 322.986 47.0095V45.1329C322.986 37.7539 318.857 33.635 309.977 33.635C301.599 33.635 296.094 37.3881 293.715 44.8864L282.703 41.1333C284.955 32.2594 294.208 23.7592 309.969 23.7592C325.731 23.7592 334.737 31.8857 334.737 45.5146V73.8936C334.737 76.7721 335.485 77.3923 338.365 77.3923H344.746V87.5225H339.615C330.234 87.5225 327.728 84.3976 327.728 74.5218H322.978C320.599 83.1492 314.099 89.2719 303.716 89.2719C291.582 89.2719 283.952 82.521 283.952 71.524C283.952 63.652 287.58 57.8951 294.709 54.1499L294.717 54.134ZM322.986 55.5017C306.477 57.1238 296.094 61.5051 296.094 70.5062C296.094 76.1359 299.722 79.6346 307.105 79.6346C315.364 79.6346 322.994 73.7584 322.994 61.8868V55.5097L322.986 55.5017Z" fill="#EBEBF2"/>
<path d="M434.072 67.8822C435.949 74.8796 440.827 79.6346 450.335 79.6346C458.967 79.6346 463.598 76.5097 463.598 71.0072C463.598 66.5066 460.598 63.5089 452.467 61.8788L444.964 60.5032C433.459 58.1257 425.447 54.0068 425.447 42.6282C425.447 31.2495 435.83 23.7512 448.839 23.7512C462.977 23.7512 471.228 30.5021 474.108 39.5032L463.725 43.5028C461.72 37.8811 457.344 32.9989 448.711 32.9989C440.707 32.9989 436.705 36.9985 436.705 41.3718C436.705 45.7452 438.71 47.6217 447.216 49.3711L454.599 50.8739C459.978 51.8758 464.855 53.8716 469.111 56.7501C473.487 59.6285 475.62 64.0019 475.62 70.0053C475.62 81.8849 466.112 89.256 450.223 89.256C436.96 89.256 425.455 82.8788 422.957 71.5081L434.088 67.8822H434.072Z" fill="#EBEBF2"/>
<path d="M546.407 54.134C553.536 50.2616 563.043 47.8841 574.675 47.0095V45.1329C574.675 37.7539 570.546 33.635 561.667 33.635C553.289 33.635 547.783 37.3881 545.404 44.8864L534.393 41.1333C536.644 32.2594 545.898 23.7592 561.659 23.7592C577.42 23.7592 586.427 31.8857 586.427 45.5146V73.8936C586.427 76.7721 587.175 77.3923 590.055 77.3923H596.436V87.5225H591.304C581.924 87.5225 579.417 84.3976 579.417 74.5218H574.668C572.289 83.1492 565.788 89.2719 555.405 89.2719C543.272 89.2719 535.642 82.521 535.642 71.524C535.642 63.652 539.27 57.8951 546.399 54.1499L546.407 54.134ZM574.675 55.5017C558.166 57.1238 547.783 61.5051 547.783 70.5062C547.783 76.1359 551.411 79.6346 558.795 79.6346C567.053 79.6346 574.683 73.7584 574.683 61.8868V55.5097L574.675 55.5017Z" fill="#EBEBF2"/>
<path d="M630.592 59.0083L619.334 69.5123V87.5146H607.575V0H619.334V35.6308C619.334 46.6357 618.212 49.88 612.707 54.8815L616.462 58.7539L650.984 25.5006H666.372L638.851 51.2556L668.496 87.5066H653.483L630.592 59.0004V59.0083Z" fill="#EBEBF2"/>
<path d="M697.266 23.7512C714.03 23.7512 724.914 36.752 724.914 54.3805C724.914 55.8834 724.787 57.6327 724.54 59.5093H680.884C681.385 73.3847 688.642 79.3881 698.022 79.3881C707.402 79.3881 711.659 73.6391 714.285 67.5085L725.042 71.3809C720.666 83.0061 710.784 89.256 697.775 89.256C680.51 89.256 669.133 77.5036 669.133 56.7501C669.133 35.9966 681.019 23.7433 697.274 23.7433L697.266 23.7512ZM712.654 50.1265C712.407 39.376 705.771 33.1261 697.266 33.1261C688.761 33.1261 682.133 39.6304 681.131 50.1265H712.654Z" fill="#EBEBF2"/>
<path d="M244.179 23.7512C260.943 23.7512 271.827 36.752 271.827 54.3805C271.827 55.8834 271.7 57.6327 271.453 59.5093H227.797C228.298 73.3847 235.554 79.3881 244.935 79.3881C254.315 79.3881 258.572 73.6391 261.197 67.5085L271.954 71.3809C267.578 83.0061 257.697 89.256 244.688 89.256C227.423 89.256 216.045 77.5036 216.045 56.7501C216.045 35.9966 227.932 23.7433 244.187 23.7433L244.179 23.7512ZM259.566 50.1265C259.32 39.376 252.684 33.1261 244.179 33.1261C235.674 33.1261 229.046 39.6304 228.043 50.1265H259.566Z" fill="#EBEBF2"/>
<path d="M741.05 25.5006H752.435C752.435 30.6293 749.308 37.7539 745.808 43.2484H752.562C755.562 31.6232 761.442 24.6179 773.074 24.6179C775.326 24.6179 777.33 24.8644 778.953 25.2461V37.3722C776.575 36.9985 774.45 36.744 772.326 36.744C758.816 36.744 752.809 44.7433 752.809 59.8751V87.5066H741.05V25.5006Z" fill="#EBEBF2"/>
<path d="M396.542 0V32.6092H393.55C389.739 26.6933 384.09 23.7592 376.524 23.7592C362.139 23.7592 351.255 36.5134 351.255 56.3843C351.255 76.2552 362.139 89.2639 376.524 89.2639C385.475 89.2639 390.424 85.0814 393.622 80.0799H397.68V87.0852C397.672 87.2283 397.664 87.3794 397.664 87.5225H408.293V0H396.534H396.542ZM380.033 79.2609C369.65 79.2609 363.523 72.3828 363.523 56.3843C363.523 41.2605 369.029 33.7543 380.033 33.7543C390.161 33.7543 397.171 41.2526 397.171 56.3843C397.171 71.5161 390.042 79.2609 380.033 79.2609Z" fill="#EBEBF2"/>
<path d="M526.381 77.3843V87.5146H510.993C500.865 87.5146 495.486 82.3858 495.486 72.2635V35.265H481.356V25.5165H524.01V35.265H507.246V71.2696C507.246 75.6429 509.251 77.3923 513.372 77.3923H526.381V77.3843ZM495.486 6.2181V21.7315C500.165 21.6361 503.14 20.4513 507.381 16.6823V6.2181H495.486Z" fill="#EBEBF2"/>
<path d="M59.2585 14.8217H45.7885V1.36766H59.2585V14.8296V14.8217ZM33.6711 2.71147H22.8982V13.4778H33.6711V2.71147ZM84.846 0.0238546H68.6867V16.1734H84.846V0.0238546ZM59.2585 25.596H45.7885V39.0579H59.2585V25.596ZM33.6711 26.9398H22.8982V37.7062H33.6711V26.9398ZM8.0836 28.2836H0V36.3624H8.0836V28.2836ZM84.846 24.2442H68.6867V40.3938H84.846V24.2442ZM109.081 24.2442H92.9216V40.3938H109.081V24.2442ZM59.2585 49.8164H45.7885V63.2783H59.2585V49.8164ZM33.6711 51.1681H22.8982V61.9345H33.6711V51.1681ZM8.0836 52.5119H0V60.5907H8.0836V52.5119ZM84.846 48.4725H68.6867V64.6221H84.846V48.4725ZM109.081 48.4725H92.9216V64.6221H109.081V48.4725ZM59.2585 74.0447H45.7885V87.5066H59.2585V74.0447ZM33.6711 75.3885H22.8982V86.1549H33.6711V75.3885ZM84.846 88.8504V72.7009H68.6867V105" fill="url(#paint0_linear_606_14)"/>
<defs>
<linearGradient id="paint0_linear_606_14" x1="18.1801" y1="81.4476" x2="92.2089" y2="7.38239" gradientUnits="userSpaceOnUse">
<stop stop-color="#EBEBF2"/>
<stop offset="0.35" stop-color="#FC0168"/>
<stop offset="1" stop-color="#2473FF"/>
</linearGradient>
</defs>
</svg>
